<?xml version="1.0" encoding="UTF-8" standalone="no"?>
<!-- Created with Inkscape (http://www.inkscape.org/) -->

<svg
   xmlns:dc="http://purl.org/dc/elements/1.1/"
   xmlns:cc="http://creativecommons.org/ns#"
   xmlns:rdf="http://www.w3.org/1999/02/22-rdf-syntax-ns#"
   xmlns:svg="http://www.w3.org/2000/svg"
   xmlns="http://www.w3.org/2000/svg"
   xmlns:xlink="http://www.w3.org/1999/xlink"
   xmlns:sodipodi="http://sodipodi.sourceforge.net/DTD/sodipodi-0.dtd"
   xmlns:inkscape="http://www.inkscape.org/namespaces/inkscape"
   height="297mm"
   width="210mm"
   viewBox="0 0 210 297"
   version="1.1"
   id="svg4"
   sodipodi:docname="last.svg"
   inkscape:version="0.92.0 unknown">
  
  <g
     inkscape:groupmode="layer"
     id="layer10"
     inkscape:label="pool 2"
     style="display:inline">
    <path
       style="fill:none;fill-rule:evenodd;stroke:#000000;stroke-width:0.16983058px;stroke-linecap:butt;stroke-linejoin:miter;stroke-opacity:1"
       d="m 34.488732,258.28258 0.6795,-0.84027 0.922176,-0.26257 0.776571,-0.10504 h 1.553139 l 0.776571,0.15755 1.164853,0.21006 0.77657,0.47265 0.825106,0.26259 0.776571,0.42013 0.679498,0.36761 0.728035,0.73523 0.679498,0.73523 0.485357,0.78775 0.485355,0.89278 0.436821,1.15536 0.388286,0.78775 0.145606,1.26038 v 0.9453 l -0.388285,0.84027 -0.728034,0.36761 -1.164855,0.10504 -0.873642,0.0525 h -0.922177 l -0.630961,-0.63019 v -0.78774 l 0.04853,-0.89279 0.04854,-0.57767 -0.291214,-0.6302 -0.388284,-0.26257 h -0.6795 l -0.728034,0.26257 -0.630964,0.6302 -0.339749,0.31509 -0.825106,0.36762 h -0.679493 l -0.970712,-0.15754 -0.339749,-0.15756 -0.485357,-0.57767 -0.679499,-0.63022 -0.388284,-0.78773 -0.145607,-0.99781 v -0.89278 l -0.291215,-0.68271 -0.04854,-0.5777 v -0.57765 l 0.145609,-0.42014 z"
       id="path437"
       inkscape:connector-curvature="0" />
  </g>
</svg>
