<?xml version="1.0" encoding="UTF-8" standalone="no"?>
<!-- Created with Inkscape (http://www.inkscape.org/) -->

<svg
   xmlns:dc="http://purl.org/dc/elements/1.1/"
   xmlns:cc="http://creativecommons.org/ns#"
   xmlns:rdf="http://www.w3.org/1999/02/22-rdf-syntax-ns#"
   xmlns:svg="http://www.w3.org/2000/svg"
   xmlns="http://www.w3.org/2000/svg"
   xmlns:xlink="http://www.w3.org/1999/xlink"
   xmlns:sodipodi="http://sodipodi.sourceforge.net/DTD/sodipodi-0.dtd"
   xmlns:inkscape="http://www.inkscape.org/namespaces/inkscape"
   height="297mm"
   width="210mm"
   viewBox="0 0 210 297"
   version="1.1"
   id="svg4"
   sodipodi:docname="last.svg"
   inkscape:version="0.92.0 unknown">
  
  <g
     inkscape:groupmode="layer"
     id="layer9"
     inkscape:label="pool 1">
    <path
       style="fill:none;fill-rule:evenodd;stroke:#000000;stroke-width:0.26458332px;stroke-linecap:butt;stroke-linejoin:miter;stroke-opacity:1"
       d="m 40.559619,253.03207 c 1.913938,1.49444 5.374738,4.1687 8.12764,6.29237 2.752903,2.12366 4.797947,3.69678 6.974031,5.47959 2.176083,1.78282 4.483317,3.77543 5.97772,5.47955 1.494404,1.70411 2.176081,3.11989 2.412091,4.40455 0.23601,1.28465 0.02628,2.43816 -0.838995,3.1462 -0.865275,0.70804 -2.385536,0.97016 -4.142372,1.10128 -1.756836,0.13112 -3.749024,0.13112 -5.820407,0.13112 -2.071384,0 -4.220991,0 -6.397242,-0.0262 -2.176251,-0.0262 -4.378309,-0.0786 -6.056398,-0.31461 -1.678089,-0.23596 -2.831557,-0.65541 -3.749332,-1.38965 -0.917775,-0.73423 -1.599364,-1.78283 -2.385887,-3.3821 -0.786523,-1.59927 -1.678001,-3.7493 -2.333436,-5.9516 -0.655435,-2.20229 -1.074954,-4.45721 -1.337117,-6.79055 -0.262163,-2.33333 -0.367046,-4.74563 -0.28837,-6.63329 0.07868,-1.88767 0.340886,-3.25116 1.022563,-4.27354 0.681677,-1.02237 1.783086,-1.7042 2.883951,-1.54693 1.100864,0.15728 2.202338,1.15384 2.936451,1.8093 0.734112,0.65546 1.101171,0.97008 3.015109,2.46453 z"
       id="path1737"
       inkscape:connector-curvature="0"
       inkscape:path-effect="#path-effect1739"
       inkscape:original-d="m 39.012711,251.85222 c 3.461071,2.674 6.921876,5.34825 10.382414,8.02278 2.045264,1.57281 4.090308,3.14592 6.135066,4.71928 2.307423,1.99229 4.614669,3.98489 6.921608,5.97776 0.681932,1.4155 1.363613,2.83128 2.045023,4.24733 -0.2095,1.15345 -0.419227,2.30696 -0.629237,3.4608 -1.520791,0.26199 -3.04105,0.52412 -4.561972,0.78656 -1.992715,-2.7e-4 -3.984903,-2.7e-4 -5.977753,0 -2.149917,-2.7e-4 -4.299524,-2.7e-4 -6.449681,0 -2.202339,-0.0527 -4.404397,-0.10512 -6.606993,-0.1573 -1.153472,-0.41981 -2.306939,-0.83926 -3.460805,-1.25849 -0.681498,-1.04912 -1.363083,-2.09772 -2.04502,-3.14618 -0.891101,-2.15001 -1.782575,-4.30004 -2.674261,-6.44967 -0.4192,-2.25489 -0.838718,-4.50981 -1.258474,-6.76431 -0.104598,-2.41212 -0.209482,-4.82442 -0.314619,-7.23623 0.262422,-1.36347 0.524629,-2.72696 0.786548,-4.09004 1.101183,-0.68179 2.202595,-1.36361 3.303495,-2.04502 1.101122,0.99575 2.202595,1.99232 3.303497,2.98887 0.367313,0.31436 0.734375,0.62898 1.101164,0.94386 z" />
  </g>
</svg>
